<?xml version="1.0" encoding="UTF-8" standalone="no"?>
<svg width="180px" height="173px" viewBox="0 0 180 173" version="1.1" xmlns="http://www.w3.org/2000/svg" xmlns:xlink="http://www.w3.org/1999/xlink" xmlns:sketch="http://www.bohemiancoding.com/sketch/ns">
    <!-- Generator: Sketch 3.3.3 (12081) - http://www.bohemiancoding.com/sketch -->
    <title>Firefox-Hello_icon_64x64 7 + Oval 49 + Bitmap 62</title>
    <desc>Created with Sketch.</desc>
    <defs></defs>
    <g id="Page-1" stroke="none" stroke-width="1" fill="none" fill-rule="evenodd" sketch:type="MSPage">
        <g id="Firefox-Hello_icon_64x64-7-+-Oval-49-+-Bitmap-62" sketch:type="MSLayerGroup" fill="#9B9B9B">
            <path d="M89.9938964,0 C40.3032446,0 0,35.4753855 0,79.218051 C0,100.996768 9.99253999,120.730945 26.1462744,135.049713 C23.3403412,144.961362 17.7842797,158.411637 6.80643692,171.542126 C8.68461591,174.869308 39.6004534,163.133301 61.3939564,154.354012 C70.3872424,156.992692 79.990893,158.437849 89.9938964,158.437849 C139.700243,158.437849 180,122.967706 180,79.218051 C180,35.4753855 139.700243,0 89.9938964,0 L89.9938964,0 Z M116.916206,47.4997256 C123.481985,47.4997256 128.809595,52.8434884 128.809595,59.4227124 C128.809595,66.0211586 123.481985,71.3544366 116.916206,71.3544366 C110.339963,71.3544366 105.008865,66.0211586 105.008865,59.4227124 C105.008865,52.8434884 110.339963,47.4997256 116.916206,47.4997256 L116.916206,47.4997256 Z M62.6146856,47.4997256 C69.1804645,47.4997256 74.5185386,52.8434884 74.5185386,59.4227124 C74.5185386,66.0211586 69.1804645,71.3544366 62.6146856,71.3544366 C56.0366994,71.3544366 50.7073447,66.0211586 50.7073447,59.4227124 C50.7073447,52.8434884 56.0366994,47.4997256 62.6146856,47.4997256 Z M122.961748,90.2575449 L58.2426468,114.527208 C56.1509241,115.311604 55.0911264,117.643159 55.8755224,119.734881 C56.6599184,121.826604 58.9914733,122.886402 61.0831959,122.102006 L125.802297,97.8323427 C127.89402,97.0479467 128.953817,94.7163919 128.169421,92.6246692 C127.385025,90.5329466 125.053471,89.4731489 122.961748,90.2575449 Z" id="Imported-Layers-Copy-28" sketch:type="MSShapeGroup"></path>
        </g>
    </g>
</svg>