<?xml version="1.0" encoding="UTF-8" standalone="no"?>
<svg width="33px" height="28px" viewBox="0 0 33 28" version="1.1" xmlns="http://www.w3.org/2000/svg" xmlns:xlink="http://www.w3.org/1999/xlink">
  <defs></defs>
  <g id="Page-1" stroke="none" stroke-width="1" fill="none" fill-rule="evenodd">
      <path d="m21.00188,13.4996c0,-0.273 -0.22633,-0.5005 -0.50049,-0.5005c-0.273,0 -0.50049,0.22633 -0.50049,0.5005l0,0.99982c0,1.92964 -1.57032,3.49995 -3.49996,3.49995c-1.92964,0 -3.49995,-1.57031 -3.49995,-3.49995l0,-0.99982c0,-0.273 -0.22633,-0.5005 -0.5005,-0.5005c-0.27299,0 -0.50049,0.22633 -0.50049,0.5005l0,0.99982c0,2.3123 1.74998,4.21861 4.00045,4.46827l0,1.03132l-1.99964,0c-0.273,0 -0.5005,0.22633 -0.5005,0.5005c0,0.27299 0.22633,0.50049 0.5005,0.50049l5.00027,0c0.27299,0 0.50049,-0.22633 0.50049,-0.50049c0,-0.273 -0.22633,-0.5005 -0.50049,-0.5005l-1.99965,0l0,-1.03132c2.25048,-0.24966 4.00045,-2.15597 4.00045,-4.46827l0,-0.99982l0,0zm-1.99964,-2.99947c0,-1.37548 -1.12465,-2.50013 -2.50013,-2.50013c-1.37548,0 -2.50013,1.12465 -2.50013,2.50013l0,4.00045c0,1.37549 1.12465,2.50014 2.50013,2.50014c1.37548,0 2.50013,-1.12465 2.50013,-2.50014l0,-4.00045l0,0z" id="Shape-Copy-7" fill="#00A9DC"></path>
  </g>
</svg> 
