<?xml version="1.0" encoding="UTF-8" standalone="no"?>
<svg width="33px" height="28px" viewBox="0 0 33 28" version="1.1" xmlns="http://www.w3.org/2000/svg" xmlns:xlink="http://www.w3.org/1999/xlink">
  <defs></defs>
  <g id="Page-1" stroke="none" stroke-width="1" fill="none" fill-rule="evenodd">
    <path fill="#00A9DC" id="Fill-90-Copy-2" d="m12.0699,19.68315l0.64407,0.64407c0.05617,0.04244 0.11234,0.0699 0.18224,0.0699c0.07052,0 0.12606,-0.02746 0.18224,-0.0699l1.97527,-1.98901c0.57417,0.35012 1.19078,0.56044 1.84921,0.63035l0,1.03662l-2.00336,0c-0.1398,0 -0.25214,0.04182 -0.35012,0.15416c-0.09798,0.09798 -0.15416,0.21032 -0.15416,0.33639c0,0.13979 0.05618,0.25213 0.15416,0.35012c0.09798,0.09798 0.21032,0.15415 0.35012,0.15415l5.00091,0c0.1398,0 0.25213,-0.05617 0.35012,-0.15415c0.09798,-0.09799 0.15415,-0.21033 0.15415,-0.35012c0,-0.12607 -0.05617,-0.23841 -0.15415,-0.33639c-0.09799,-0.11234 -0.21032,-0.15416 -0.35012,-0.15416l-2.00336,0l0,-1.03662c1.13461,-0.12607 2.08761,-0.60226 2.85775,-1.45665c0.77076,-0.85502 1.14897,-1.86357 1.14897,-3.01191l0,-0.99481c0,-0.1398 -0.05617,-0.25214 -0.15415,-0.35013c-0.09799,-0.09798 -0.21032,-0.15415 -0.33639,-0.15415c-0.1398,0 -0.25214,0.05617 -0.35012,0.15415c-0.09799,0.09799 -0.15415,0.21033 -0.15415,0.35013l0,0.99481c0,0.96673 -0.35012,1.79304 -1.03664,2.47955c-0.6865,0.68651 -1.51281,1.02227 -2.46519,1.02227c-0.57417,0 -1.10715,-0.12606 -1.61142,-0.39193l0.75703,-0.75641c0.28022,0.09798 0.55982,0.15415 0.85439,0.15415c0.68651,0 1.27441,-0.25213 1.76496,-0.74268c0.48992,-0.49054 0.72832,-1.07844 0.72832,-1.76495l0,-0.99481l2.82967,-2.82967c0.04182,-0.04182 0.0699,-0.11172 0.0699,-0.18224c0,-0.05555 -0.02808,-0.12607 -0.0699,-0.16788l-0.64407,-0.64408c-0.05617,-0.05616 -0.11234,-0.08425 -0.18224,-0.08425c-0.0699,0 -0.12607,0.02809 -0.18224,0.08425l-9.6517,9.63735c-0.04182,0.05617 -0.0699,0.11234 -0.0699,0.18224c0,0.0699 0.02808,0.12607 0.0699,0.18224l0,0zm1.14897,-3.50245l0.78387,-0.79822c-0.0699,-0.30831 -0.11172,-0.60226 -0.11172,-0.88248l0,-0.99481c0,-0.1398 -0.05617,-0.25214 -0.15415,-0.35013c-0.09798,-0.09798 -0.21032,-0.15415 -0.33639,-0.15415c-0.1398,0 -0.25214,0.05617 -0.35012,0.15415c-0.09798,0.09799 -0.15415,0.21033 -0.15415,0.35013l0,0.99481c0,0.57417 0.11233,1.13461 0.32266,1.6807l0,0zm6.54181,-6.52746c-0.18223,-0.49054 -0.49054,-0.88248 -0.91056,-1.19078c-0.43438,-0.30831 -0.91056,-0.46246 -1.44292,-0.46246c-0.70086,0 -1.28877,0.23841 -1.77931,0.72832c-0.48992,0.49055 -0.72832,1.07907 -0.72832,1.76496l0,4.00672l4.86111,-4.84676l0,0z"/>
  </g>
</svg> 
