<?xml version="1.0" encoding="UTF-8" standalone="no"?>
<svg width="67px" height="28px" viewBox="0 0 67 28" version="1.1" xmlns="http://www.w3.org/2000/svg" xmlns:xlink="http://www.w3.org/1999/xlink">
    <defs></defs>
    <g id="Page-1" stroke="none" stroke-width="1" fill="none" fill-rule="evenodd">
        <path d="M2,14 C2,7.372583 7.37049212,2 13.9962035,2 L52.9937982,2 C59.6191184,2 64.9900017,7.37112582 64.9900017,14 C64.9900017,20.627417 59.6195096,26 52.9937982,26 L13.9962035,26 C7.37088326,26 2,20.6288742 2,14 Z M32.994984,7.28907739 L32.994984,21.2024677 L33.9950177,21.2024677 L33.9950177,7.28907739 L32.994984,7.28907739 Z" id="Rectangle-1264" opacity="0.95" fill="#5CCCEE"></path>
        <path d="M2,14 L2,14 C2,20.6288742 7.37173577,26 13.9981077,26 L53.0018923,26 C59.6286554,26 65,20.627417 65,14 L65,14 C65,7.37112582 59.6282642,2 53.0018923,2 L13.9981077,2 C7.37134457,2 2,7.372583 2,14 L2,14 Z M0,14 L0,14 C0,6.26795905 6.26682948,0 13.9981077,0 L53.0018923,0 C60.73337,0 67,6.26709264 67,14 C67,21.7320409 60.7331705,28 53.0018923,28 L13.9981077,28 C6.26662998,28 0,21.7329074 0,14 L0,14 Z" id="Shape" fill-opacity="0.2" fill="#000000"></path>
        <path d="M12.5924747,18.4075253 C12.9956945,18.7983901 13.4623736,19 14.0295769,19 L18.9833396,19 C19.5376264,19 20.0166604,18.7983901 20.4075253,18.4075253 C20.8113066,18.0043055 21,17.5376264 21,16.9704231 L21,15.810745 L23.8360165,18.6467615 C23.9247473,18.7354923 24.0252714,18.7731187 24.1516286,18.7731187 C24.2145264,18.7731187 24.2650693,18.7607638 24.3279671,18.7354923 C24.517222,18.659678 24.6053912,18.5209659 24.6053912,18.319356 L24.6053912,10.6677274 C24.6053912,10.4790341 24.517222,10.340322 24.3279671,10.2521528 C24.2650693,10.2392362 24.2145264,10.2268813 24.1516286,10.2268813 C24.0252714,10.2268813 23.9247473,10.2645077 23.8360165,10.3526769 L21,13.1763385 L21,12.0166604 C21,11.4618121 20.8113066,10.9833396 20.4075253,10.5924747 C20.0166604,10.1886934 19.5376264,10 18.9833396,10 L14.0295769,10 C13.4623736,10 12.9956945,10.1886934 12.5924747,10.5924747 C12.2016099,10.9833396 12,11.4618121 12,12.0166604 L12,16.9704231 C12,17.5376264 12.2016099,18.0043055 12.5924747,18.4075253" id="Fill-83-Copy" fill="#FFFFFF"></path>
        <path d="M52.0018846,13.4995962 C52.0018846,13.2265997 51.7755542,12.9991026 51.501391,12.9991026 C51.2283945,12.9991026 51.0008974,13.225433 51.0008974,13.4995962 L51.0008974,14.4994167 C51.0008974,16.4290586 49.4305842,17.9993718 47.5009423,17.9993718 C45.5713004,17.9993718 44.0009872,16.4290586 44.0009872,14.4994167 L44.0009872,13.4995962 C44.0009872,13.2265997 43.7746567,12.9991026 43.5004936,12.9991026 C43.2274971,12.9991026 43,13.225433 43,13.4995962 L43,14.4994167 C43,16.8117204 44.7499776,18.7180293 47.0004487,18.9676927 L47.0004487,19.9990128 L45.0008077,19.9990128 C44.7278112,19.9990128 44.5003141,20.2253433 44.5003141,20.4995064 C44.5003141,20.7725029 44.7266445,21 45.0008077,21 L50.0010769,21 C50.2740734,21 50.5015705,20.7736696 50.5015705,20.4995064 C50.5015705,20.2265099 50.2752401,19.9990128 50.0010769,19.9990128 L48.0014359,19.9990128 L48.0014359,18.9676927 C50.251907,18.7180293 52.0018846,16.8117204 52.0018846,14.4994167 L52.0018846,13.4995962 L52.0018846,13.4995962 Z M50.0022436,10.5001346 C50.0022436,9.12465225 48.8775913,8 47.5021089,8 C46.1266266,8 45.0019743,9.12465225 45.0019743,10.5001346 L45.0019743,14.5005833 C45.0019743,15.8760657 46.1266266,17.0007179 47.5021089,17.0007179 C48.8775913,17.0007179 50.0022436,15.8760657 50.0022436,14.5005833 L50.0022436,10.5001346 L50.0022436,10.5001346 Z" id="Shape-Copy-7" fill="#FFFFFF"></path>
    </g>
</svg>