<?xml version="1.0" encoding="UTF-8" standalone="no"?>
<svg width="67px" height="28px" viewBox="0 0 67 28" version="1.1" xmlns="http://www.w3.org/2000/svg" xmlns:xlink="http://www.w3.org/1999/xlink">
    <defs></defs>
    <g id="Page-1" stroke="none" stroke-width="1" fill="none" fill-rule="evenodd">
        <path d="M12.5924747,18.4075253 C12.9956945,18.7983901 13.4623736,19 14.0295769,19 L18.9833396,19 C19.5376264,19 20.0166604,18.7983901 20.4075253,18.4075253 C20.8113066,18.0043055 21,17.5376264 21,16.9704231 L21,15.810745 L23.8360165,18.6467615 C23.9247473,18.7354923 24.0252714,18.7731187 24.1516286,18.7731187 C24.2145264,18.7731187 24.2650693,18.7607638 24.3279671,18.7354923 C24.517222,18.659678 24.6053912,18.5209659 24.6053912,18.319356 L24.6053912,10.6677274 C24.6053912,10.4790341 24.517222,10.340322 24.3279671,10.2521528 C24.2650693,10.2392362 24.2145264,10.2268813 24.1516286,10.2268813 C24.0252714,10.2268813 23.9247473,10.2645077 23.8360165,10.3526769 L21,13.1763385 L21,12.0166604 C21,11.4618121 20.8113066,10.9833396 20.4075253,10.5924747 C20.0166604,10.1886934 19.5376264,10 18.9833396,10 L14.0295769,10 C13.4623736,10 12.9956945,10.1886934 12.5924747,10.5924747 C12.2016099,10.9833396 12,11.4618121 12,12.0166604 L12,16.9704231 C12,17.5376264 12.2016099,18.0043055 12.5924747,18.4075253" id="Fill-83-Copy" fill="#FFFFFF"></path>
    </g>
</svg>