<?xml version="1.0" encoding="UTF-8" standalone="no"?>
<svg width="34px" height="28px" viewBox="0 0 34 28" version="1.1" xmlns="http://www.w3.org/2000/svg" xmlns:xlink="http://www.w3.org/1999/xlink">
  <defs></defs>
  <g id="Page-1" stroke="none" stroke-width="1" fill="none" fill-rule="evenodd">
     <path d="M14.5056409,19.4029285 L18.9833396,19.4029285 C19.5376264,19.4029285 20.0166604,19.2013186 20.4075253,18.8104537 C20.8113066,18.407234 21,17.9405548 21,17.3733515 L21,16.2136735 L23.8360165,19.04969 C23.9247473,19.1384208 24.0252714,19.1760472 24.1516286,19.1760472 C24.2145264,19.1760472 24.2650693,19.1636922 24.3279671,19.1384208 C24.517222,19.0626065 24.6053912,18.9238944 24.6053912,18.7222845 L24.6053912,11.0706559 C24.6053912,10.8819625 24.517222,10.7432504 24.3279671,10.6550812 C24.2650693,10.6421647 24.2145264,10.6298098 24.1516286,10.6298098 C24.0252714,10.6298098 23.9247473,10.6674361 23.8360165,10.7556054 L21,13.5792669 L21,12.9085694 L22.8301248,11.0784446 C22.8719395,11.0366299 22.900024,10.9667307 22.900024,10.8962074 C22.900024,10.8406625 22.8719395,10.7701392 22.8301248,10.7283245 L22.1860538,10.0842535 C22.1298848,10.0280845 22.0737158,10 22.0038166,10 C21.9339174,10 21.8777484,10.0280845 21.8215795,10.0842535 L12.1698752,19.7216035 C12.1280605,19.7777724 12.099976,19.8339414 12.099976,19.9038406 C12.099976,19.9737398 12.1280605,20.0299088 12.1698752,20.0860778 L12.8139462,20.7301488 C12.8701152,20.7725876 12.9262842,20.800048 12.9961834,20.800048 C13.0667067,20.800048 13.1222516,20.7725876 13.1784205,20.7301488 L14.5056409,19.4029285 Z M19.454018,10.4528944 C19.3038986,10.4193577 19.1468952,10.4029285 18.9833396,10.4029285 L14.0295769,10.4029285 C13.4623736,10.4029285 12.9956945,10.5916218 12.5924747,10.9954032 C12.2016099,11.386268 12,11.8647405 12,12.4195889 L12,17.3733515 C12,17.5387368 12.0171407,17.6955757 12.0511158,17.8447868 L19.454018,10.4528944 L19.454018,10.4528944 Z" id="Fill-83-Copy-3" fill="#00A9DC"></path>
  </g>
</svg> 
